<svg id="drawing" style="width: 1100px; height: 1250px; border: 1px solid rgb(170, 170, 170); background: rgb(238, 238, 238);"><desc>Created with Snap</desc><defs></defs><path d="M 0 0 L 1100 0 L 1100 1250 L 0 1250 z" stroke="#000000" style="stroke-width: 4px; fill-opacity: 0;"></path><path d="M 550 0 L 550 1250" stroke="#000000" style="stroke-width: 4px; fill-opacity: 0;"></path><path d="M 0 139 L 550 139" stroke="#000000" style="stroke-width: 4px; fill-opacity: 0;"></path><path d="M 550 139 L 1100 139" stroke="#000000" style="stroke-width: 4px; fill-opacity: 0;"></path><path d="M 0 278 L 550 278" stroke="#000000" style="stroke-width: 4px; fill-opacity: 0;"></path><path d="M 550 278 L 1100 278" stroke="#000000" style="stroke-width: 4px; fill-opacity: 0;"></path><path d="M 0 417 L 550 417" stroke="#000000" style="stroke-width: 4px; fill-opacity: 0;"></path><path d="M 550 417 L 1100 417" stroke="#000000" style="stroke-width: 4px; fill-opacity: 0;"></path><path d="M 0 558 L 550 558" stroke="#000000" style="stroke-width: 4px; fill-opacity: 0;"></path><path d="M 550 558 L 1100 558" stroke="#000000" style="stroke-width: 4px; fill-opacity: 0;"></path><path d="M 0 697 L 550 697" stroke="#000000" style="stroke-width: 4px; fill-opacity: 0;"></path><path d="M 550 697 L 1100 697" stroke="#000000" style="stroke-width: 4px; fill-opacity: 0;"></path><path d="M 0 836 L 550 836" stroke="#000000" style="stroke-width: 4px; fill-opacity: 0;"></path><path d="M 550 836 L 1100 836" stroke="#000000" style="stroke-width: 4px; fill-opacity: 0;"></path><path d="M 183.33333333333334 836 L 183.33333333333334 1050" stroke="#000000" style="stroke-width: 4px; fill-opacity: 0;"></path><path d="M 366.6666666666667 836 L 366.6666666666667 1050" stroke="#000000" style="stroke-width: 4px; fill-opacity: 0;"></path><path d="M 733.3333333333334 836 L 733.3333333333334 1050" stroke="#000000" style="stroke-width: 4px; fill-opacity: 0;"></path><path d="M 916.6666666666667 836 L 916.6666666666667 1050" stroke="#000000" style="stroke-width: 4px; fill-opacity: 0;"></path><path d="M 366.6666666666667 1048 L 550 1048" stroke="#000000" style="stroke-width: 4px; fill-opacity: 0;"></path><path d="M 550 1048 L 733.3333333333334 1048" stroke="#000000" style="stroke-width: 4px; fill-opacity: 0;"></path></svg>
